# xmcd
#
# Track frame offsets:
#	150
#	18470
#	29104
#	42032
#	55946
#	65128
#	84026
#	97154
#	116138
#	130449
#	140035
#	151940
#
# Disc length: 2163 seconds
#
# Revision: 7
# Processed by: cddbd v1.5.2PL0 Copyright (c) Steve Scherf et al.
# Submitted via: EasyCDDAExtractor 12.0.4.1
#
DISCID=ac08710c
DTITLE=Willie Nelson - Just One Love
DYEAR=1996
DGENRE=Country
TTITLE0=Just One Love
TTITLE1=Each Night At Nine
TTITLE2=This Cold Cold War With You
TTITLE3=Better Left Forgotten
TTITLE4=It's A Sin
TTITLE5=Four Walls
TTITLE6=Smoke, Smoke, Smoke That Cigarette
TTITLE7=I Just Drove By
TTITLE8=Cold Cold Heart
TTITLE9=Bonaparte's Retreat
TTITLE10=Alabam
TTITLE11=Eight More Miles To Louisville
EXTD=YEAR: 1995
EXTT0=
EXTT1=
EXTT2=
EXTT3=
EXTT4=
EXTT5=
EXTT6=
EXTT7=
EXTT8=
EXTT9=
EXTT10=
EXTT11=
PLAYORDER=
